# xmcd
#
# Track frame offsets:
#	150
#	14910
#	34085
#	48697
#	69615
#	89325
#	106850
#	138012
#	155802
#	172452
#	195575
#	209430
#	233657
#	248620
#	267712
#	284850
#	301035
#	312575
#
# Disc length: 4411 seconds
#
# Revision: 4
# Processed by: cddbd v1.4PL0 Copyright (c) Steve Scherf et al.
# Submitted via: audiograbber 1.81.03
#
DISCID=16113912
DTITLE=Various Artist - Harp Beat Of The Swamp
DYEAR=1997
DGENRE=Blues
TTITLE0=Lazy Lester - Sugar Coated Love
TTITLE1=Chicago Bob Nelson - Back To Bogalusa
TTITLE2=Raful Neal - I Have Eyes For You
TTITLE3=Smokehouse - Hoodoo Woman Blues
TTITLE4=Jumping Johnny Sansone - Don't Cry Baby
TTITLE5=Tony Coleman - Why You Wanna Do Me Like That?
TTITLE6=Bill Wharton and The Ingredits - Hurricane Blues
TTITLE7=Ace Moreland - Your Love Is A Lie
TTITLE8=The Midnight Creepers - Luberta
TTITLE9=Chicago Bob Nelson - Came Home This Morning
TTITLE10=Erica Guerin - Sticking My Guns
TTITLE11=Raful Neal - Starlight Diamond
TTITLE12=Smokehouse - Low Down River
TTITLE13=Jumping Johnny Sansone - Midnight Til Morning
TTITLE14=The Midnight Creepers - Harder Than I Figured
TTITLE15=Ace Moreland - Head In The Bottle
TTITLE16=Lazy Lester - The Same Thing Could Happen To You
TTITLE17=Mark Hodgson - Straight Line
EXTD=
EXTT0=
EXTT1=
EXTT2=
EXTT3=
EXTT4=
EXTT5=
EXTT6=
EXTT7=
EXTT8=
EXTT9=
EXTT10=
EXTT11=
EXTT12=
EXTT13=
EXTT14=
EXTT15=
EXTT16=
EXTT17=
PLAYORDER=
